<?xml version="1.0" encoding="UTF-8"?>
<svg xmlns="http://www.w3.org/2000/svg" xmlns:xlink="http://www.w3.org/1999/xlink" width="300px" height="240px" viewBox="0 0 300 240" version="1.1">
<g id="surface1">
<path style=" stroke:none;fill-rule:nonzero;fill:rgb(54.901961%,13.72549%,52.941176%);fill-opacity:1;" d="M 142.011719 107.746094 C 143.863281 105.363281 145.730469 102.996094 147.59375 100.625 C 148.136719 100.980469 148.675781 101.335938 149.21875 101.691406 C 147.269531 104.039062 145.355469 106.421875 143.480469 108.828125 C 145.285156 110.15625 147.050781 111.539062 148.78125 112.96875 C 148.324219 113.53125 147.871094 114.089844 147.421875 114.648438 C 145.796875 113.125 144.070312 111.703125 142.265625 110.398438 C 139.890625 113.519531 137.445312 116.589844 135.195312 119.800781 C 134.800781 119.683594 134.015625 119.453125 133.621094 119.339844 C 133.613281 117.058594 133.453125 114.785156 133.210938 112.519531 C 133.640625 112.480469 134.5 112.40625 134.929688 112.363281 C 135.019531 113.761719 135.109375 115.15625 135.195312 116.554688 C 137.050781 114.109375 138.953125 111.710938 140.796875 109.261719 C 139.121094 108.109375 137.414062 107.003906 135.671875 105.964844 C 136.101562 105.453125 136.535156 104.945312 136.96875 104.433594 C 138.664062 105.511719 140.34375 106.621094 142.011719 107.746094 Z M 142.011719 107.746094 "/>
<path style=" stroke:none;fill-rule:nonzero;fill:rgb(55.686275%,12.156863%,53.333333%);fill-opacity:1;" d="M 158.613281 101.566406 C 159.621094 100.699219 161 101.039062 162.191406 101.183594 C 162.179688 101.636719 162.148438 102.53125 162.140625 102.980469 C 161.480469 103.164062 160.429688 102.761719 160.140625 103.601562 C 159.871094 106.359375 160.179688 109.148438 159.921875 111.921875 C 160.203125 111.53125 160.5 111.144531 160.800781 110.765625 C 162.085938 109.191406 163.429688 107.671875 164.738281 106.113281 C 165.683594 106.105469 166.628906 106.09375 167.578125 106.085938 C 166.050781 107.828125 164.515625 109.570312 162.960938 111.285156 C 164.589844 113.625 166.246094 115.941406 167.890625 118.265625 C 166.941406 118.269531 165.988281 118.28125 165.039062 118.296875 C 163.78125 116.480469 162.539062 114.65625 161.308594 112.824219 C 160.878906 113.226562 160.449219 113.621094 160.019531 114.015625 C 160.019531 115.429688 160.019531 116.851562 160.019531 118.269531 C 159.199219 118.269531 158.386719 118.269531 157.570312 118.273438 C 157.574219 113.851562 157.566406 109.425781 157.566406 105 C 157.601562 103.808594 157.566406 102.371094 158.613281 101.566406 Z M 158.613281 101.566406 "/>
<path style=" stroke:none;fill-rule:nonzero;fill:rgb(55.686275%,12.156863%,53.333333%);fill-opacity:1;" d="M 235.988281 106.101562 C 236.800781 106.09375 237.613281 106.09375 238.429688 106.09375 C 238.449219 108.734375 238.398438 111.375 238.433594 114.015625 C 238.484375 114.828125 238.429688 115.785156 239.085938 116.394531 C 239.988281 116.515625 240.90625 116.429688 241.820312 116.414062 C 241.828125 116.980469 241.839844 117.546875 241.855469 118.109375 C 239.914062 118.691406 236.933594 118.863281 236.226562 116.449219 C 235.699219 113.035156 236.105469 109.546875 235.988281 106.101562 Z M 235.988281 106.101562 "/>
<path style=" stroke:none;fill-rule:nonzero;fill:rgb(55.686275%,11.764706%,53.333333%);fill-opacity:1;" d="M 220.035156 101.515625 C 221.003906 100.773438 222.289062 101.101562 223.414062 101.089844 C 223.453125 101.730469 223.488281 102.363281 223.53125 103.003906 C 222.875 103.039062 222.230469 103.101562 221.585938 103.195312 C 221.183594 104.683594 221.339844 106.25 221.210938 107.769531 C 222.949219 105.183594 227.820312 105.144531 228.738281 108.441406 C 229.285156 111.246094 228.890625 114.136719 229.015625 116.976562 C 228.921875 118.804688 229.328125 120.800781 228.460938 122.496094 C 227.621094 123.96875 225.730469 123.664062 224.320312 123.523438 C 224.308594 122.90625 224.300781 122.289062 224.296875 121.675781 C 225.105469 121.539062 226.628906 121.855469 226.449219 120.574219 C 226.558594 116.890625 226.648438 113.175781 226.398438 109.5 C 226.054688 107.078125 222.089844 107.390625 221.675781 109.636719 C 221.03125 112.464844 221.445312 115.40625 221.339844 118.28125 C 220.519531 118.269531 219.699219 118.261719 218.886719 118.25 C 218.90625 113.828125 218.886719 109.40625 218.890625 104.984375 C 218.925781 103.773438 218.90625 102.273438 220.035156 101.515625 Z M 220.035156 101.515625 "/>
<path style=" stroke:none;fill-rule:nonzero;fill:rgb(23.529412%,74.117647%,89.411765%);fill-opacity:1;" d="M 45.824219 105.238281 C 49.191406 102.664062 53.425781 101.335938 57.664062 101.648438 C 56.574219 104.144531 55.085938 106.429688 53.730469 108.785156 C 53.304688 108.746094 52.453125 108.664062 52.03125 108.625 C 53.074219 106.804688 54.121094 104.984375 55.109375 103.136719 C 52.300781 103.621094 49.503906 104.484375 47.203125 106.226562 C 46.859375 105.980469 46.171875 105.488281 45.824219 105.238281 Z M 45.824219 105.238281 "/>
<path style=" stroke:none;fill-rule:nonzero;fill:rgb(67.45098%,12.156863%,52.156863%);fill-opacity:1;" d="M 57.914062 103.371094 C 58.304688 102.789062 58.660156 102.003906 59.445312 101.898438 C 65.328125 102.441406 70.695312 106.308594 73.261719 111.609375 C 66.578125 111.425781 59.886719 111.445312 53.199219 111.601562 C 54.746094 108.839844 56.339844 106.113281 57.914062 103.371094 M 59.660156 103.433594 C 58.398438 105.636719 57.113281 107.824219 55.871094 110.035156 C 60.78125 110.03125 65.683594 110.050781 70.59375 110.019531 C 67.988281 106.484375 64.039062 104 59.660156 103.433594 Z M 59.660156 103.433594 "/>
<path style=" stroke:none;fill-rule:nonzero;fill:rgb(23.137255%,67.45098%,84.705882%);fill-opacity:1;" d="M 42.445312 109.011719 C 43.238281 107.496094 44.636719 106.429688 45.824219 105.238281 C 46.171875 105.488281 46.859375 105.980469 47.203125 106.226562 C 46.015625 107.164062 44.808594 108.183594 44.113281 109.558594 C 43.90625 110.003906 43.496094 110.890625 43.285156 111.335938 C 42.984375 110.574219 42.320312 109.863281 42.445312 109.011719 Z M 42.445312 109.011719 "/>
<path style=" stroke:none;fill-rule:nonzero;fill:rgb(54.509804%,14.509804%,52.156863%);fill-opacity:1;" d="M 264.371094 105.820312 C 264.921875 105.625 265.464844 105.429688 266.019531 105.230469 C 266.640625 106.855469 267.246094 108.488281 267.820312 110.128906 C 267.253906 110.324219 266.695312 110.519531 266.140625 110.714844 C 265.601562 109.066406 265.019531 107.429688 264.371094 105.820312 Z M 264.371094 105.820312 "/>
<path style=" stroke:none;fill-rule:nonzero;fill:rgb(55.294118%,13.72549%,53.333333%);fill-opacity:1;" d="M 110.945312 106.101562 C 111.769531 106.09375 112.601562 106.089844 113.429688 106.078125 C 112.40625 108.765625 111.761719 111.730469 112.398438 114.585938 C 112.636719 115.554688 113.339844 116.765625 114.523438 116.484375 C 115.363281 116.574219 115.851562 115.691406 115.976562 114.988281 C 116.265625 113.445312 116.144531 111.863281 116.160156 110.304688 C 116.929688 110.300781 117.699219 110.300781 118.46875 110.300781 C 118.515625 111.976562 118.386719 113.679688 118.714844 115.339844 C 119.054688 116.886719 121.445312 116.890625 121.914062 115.425781 C 123.074219 112.394531 122.261719 109.019531 121.203125 106.070312 C 122.039062 106.089844 122.886719 106.105469 123.726562 106.125 C 124.796875 109.425781 125.5 113.230469 123.945312 116.484375 C 122.675781 119.101562 118.503906 119.234375 117.273438 116.5 C 116.15625 119.15625 112.164062 119.121094 110.816406 116.703125 C 109.074219 113.425781 109.785156 109.453125 110.945312 106.101562 Z M 110.945312 106.101562 "/>
<path style=" stroke:none;fill-rule:nonzero;fill:rgb(54.901961%,12.54902%,52.54902%);fill-opacity:1;" d="M 174.84375 106.390625 C 177.039062 105.445312 179.484375 105.960938 181.691406 106.605469 C 181.429688 107.238281 181.164062 107.875 180.910156 108.515625 C 179.34375 108.035156 177.621094 107.339844 176.019531 108.074219 C 175.105469 108.390625 175.054688 109.683594 175.609375 110.351562 C 176.769531 111.136719 178.25 110.925781 179.574219 111.050781 C 179.574219 111.484375 179.574219 112.351562 179.574219 112.785156 C 178.398438 112.851562 177.199219 112.808594 176.066406 113.128906 C 174.714844 113.460938 174.476562 115.675781 175.78125 116.199219 C 177.695312 116.96875 179.789062 116.363281 181.648438 115.71875 C 181.648438 116.226562 181.644531 117.246094 181.644531 117.753906 C 179.285156 118.558594 176.570312 118.945312 174.246094 117.839844 C 172.570312 117.046875 171.863281 114.640625 173.023438 113.148438 C 173.605469 112.625 174.335938 112.308594 175.015625 111.945312 C 174.136719 111.328125 173 110.699219 172.988281 109.476562 C 172.75 108.144531 173.625 106.859375 174.84375 106.390625 Z M 174.84375 106.390625 "/>
<path style=" stroke:none;fill-rule:nonzero;fill:rgb(54.509804%,12.941176%,52.156863%);fill-opacity:1;" d="M 187.761719 106.09375 C 188.410156 106.09375 189.054688 106.101562 189.710938 106.101562 C 189.78125 106.488281 189.914062 107.269531 189.984375 107.660156 C 191.871094 105.210938 196.753906 105.09375 197.625 108.484375 C 198.304688 112.609375 197.464844 116.855469 198.070312 120.988281 C 198.203125 121.988281 199.570312 121.546875 200.273438 121.726562 C 200.25 122.320312 200.226562 122.914062 200.203125 123.511719 C 198.300781 124.03125 195.746094 123.53125 195.460938 121.21875 C 195.398438 117.390625 195.699219 113.550781 195.316406 109.734375 C 195.183594 107.203125 191.105469 107.226562 190.578125 109.523438 C 189.855469 112.371094 190.339844 115.359375 190.210938 118.265625 C 189.390625 118.269531 188.570312 118.269531 187.753906 118.273438 C 187.753906 114.214844 187.765625 110.15625 187.761719 106.09375 Z M 187.761719 106.09375 "/>
<path style=" stroke:none;fill-rule:nonzero;fill:rgb(54.509804%,12.941176%,52.156863%);fill-opacity:1;" d="M 205.65625 106.578125 C 207.746094 105.359375 210.28125 105.929688 212.453125 106.609375 C 212.230469 107.234375 212 107.855469 211.773438 108.484375 C 210.410156 108.128906 208.996094 107.484375 207.570312 107.859375 C 206.601562 108.015625 206.234375 109.328125 207 109.941406 C 208.410156 110.984375 210.214844 111.335938 211.605469 112.425781 C 212.863281 113.429688 212.914062 115.410156 212.179688 116.746094 C 211.421875 118.058594 209.789062 118.253906 208.460938 118.613281 C 208.863281 119.5 209.179688 120.449219 209.769531 121.246094 C 210.546875 121.914062 211.628906 121.570312 212.550781 121.621094 C 212.546875 122.265625 212.539062 122.90625 212.539062 123.554688 C 211.074219 123.609375 209.324219 123.980469 208.148438 122.855469 C 207.09375 121.746094 206.953125 120.113281 206.140625 118.859375 C 205.574219 118.359375 204.894531 118.019531 204.261719 117.636719 C 204.25 117.160156 204.226562 116.203125 204.214844 115.730469 C 205.871094 116.25 207.664062 117 209.410156 116.40625 C 210.261719 116.09375 210.601562 114.804688 209.921875 114.171875 C 208.554688 113.074219 206.769531 112.695312 205.378906 111.640625 C 203.746094 110.460938 203.835938 107.546875 205.65625 106.578125 Z M 205.65625 106.578125 "/>
<path style=" stroke:none;fill-rule:nonzero;fill:rgb(54.901961%,14.117647%,52.941176%);fill-opacity:1;" d="M 272.28125 105.910156 C 272.921875 106.109375 273.554688 106.308594 274.203125 106.515625 C 273.308594 110.066406 271.929688 113.640625 269.199219 116.195312 C 267.53125 117.890625 265.410156 119.023438 263.265625 119.996094 C 262.773438 119.488281 262.296875 118.984375 261.808594 118.484375 C 264.808594 117.421875 267.683594 115.703125 269.554688 113.070312 C 271.074219 110.964844 271.855469 108.445312 272.28125 105.910156 Z M 272.28125 105.910156 "/>
<path style=" stroke:none;fill-rule:nonzero;fill:rgb(54.509804%,13.72549%,52.156863%);fill-opacity:1;" d="M 259.109375 107.011719 C 259.671875 106.804688 260.234375 106.59375 260.804688 106.390625 C 261.488281 108.085938 262.164062 109.785156 262.828125 111.488281 C 262.261719 111.699219 261.683594 111.90625 261.121094 112.113281 C 260.515625 110.390625 259.855469 108.679688 259.109375 107.011719 Z M 259.109375 107.011719 "/>
<path style=" stroke:none;fill-rule:nonzero;fill:rgb(21.568627%,55.686275%,78.823529%);fill-opacity:1;" d="M 52.03125 108.625 C 52.453125 108.664062 53.304688 108.746094 53.730469 108.785156 C 51.695312 112.148438 49.875 115.648438 47.75 118.964844 C 46.261719 116.421875 44.859375 113.824219 43.285156 111.335938 C 43.496094 110.890625 43.90625 110.003906 44.113281 109.558594 C 45.28125 111.703125 46.589844 113.765625 47.789062 115.894531 C 49.230469 113.484375 50.648438 111.066406 52.03125 108.625 Z M 52.03125 108.625 "/>
<path style=" stroke:none;fill-rule:nonzero;fill:rgb(95.686275%,76.078431%,94.901961%);fill-opacity:1;" d="M 195.460938 121.21875 C 194.695312 117.460938 194.910156 113.53125 195.316406 109.734375 C 195.699219 113.550781 195.398438 117.390625 195.460938 121.21875 Z M 195.460938 121.21875 "/>
<path style=" stroke:none;fill-rule:nonzero;fill:rgb(21.176471%,56.470588%,77.254902%);fill-opacity:1;" d="M 41.59375 110.449219 C 43.441406 111.90625 44.113281 114.410156 45.441406 116.320312 C 45.085938 116.734375 44.730469 117.15625 44.375 117.574219 C 43.496094 116.054688 42.613281 114.539062 41.714844 113.035156 C 41.328125 114.21875 40.941406 115.40625 40.648438 116.621094 C 40.214844 116.804688 39.785156 116.988281 39.363281 117.195312 C 39.226562 116.945312 38.953125 116.449219 38.816406 116.199219 C 35.574219 115.976562 32.308594 116.15625 29.058594 116.140625 C 28.355469 117.011719 27.683594 118.171875 26.441406 118.269531 C 24.785156 118.566406 23.066406 117.175781 23.074219 115.480469 C 22.859375 113.488281 25.140625 111.761719 26.984375 112.554688 C 27.929688 112.90625 28.449219 113.835938 29.078125 114.554688 C 32.589844 114.554688 36.109375 114.726562 39.613281 114.433594 C 40.109375 113.035156 40.570312 111.558594 41.59375 110.449219 M 25.144531 114.210938 C 24.128906 114.890625 24.71875 116.859375 25.988281 116.71875 C 26.863281 116.855469 27.601562 115.839844 27.363281 115.023438 C 27.300781 113.953125 25.898438 113.785156 25.144531 114.210938 Z M 25.144531 114.210938 "/>
<path style=" stroke:none;fill-rule:nonzero;fill:rgb(63.137255%,14.117647%,50.980392%);fill-opacity:1;" d="M 79.460938 112.726562 C 80.148438 111.410156 81.589844 110.246094 83.144531 110.875 C 85.351562 111.546875 85.484375 115 83.34375 115.851562 C 81.828125 116.65625 80.351562 115.503906 79.488281 114.324219 C 74.753906 114.269531 70.019531 114.308594 65.289062 114.296875 C 65.675781 115 66.058594 115.699219 66.449219 116.40625 C 66.140625 116.628906 65.515625 117.085938 65.203125 117.308594 C 64.355469 115.824219 63.511719 114.34375 62.679688 112.851562 C 68.269531 112.648438 73.863281 112.871094 79.460938 112.726562 M 81.054688 113.449219 C 80.980469 114.519531 82.390625 114.421875 83.085938 114.644531 C 83.078125 113.976562 83.671875 113.023438 82.96875 112.53125 C 82.28125 111.820312 80.910156 112.488281 81.054688 113.449219 Z M 81.054688 113.449219 "/>
<path style=" stroke:none;fill-rule:nonzero;fill:rgb(100%,80.392157%,100%);fill-opacity:1;" d="M 53.199219 111.601562 C 59.886719 111.445312 66.578125 111.425781 73.261719 111.609375 C 70.460938 112.683594 67.398438 112.019531 64.480469 112.148438 C 60.726562 111.886719 56.898438 112.46875 53.199219 111.601562 Z M 53.199219 111.601562 "/>
<path style=" stroke:none;fill-rule:nonzero;fill:rgb(58.823529%,14.509804%,51.764706%);fill-opacity:1;" d="M 89.371094 117.265625 C 90.363281 116.363281 91.429688 114.933594 92.980469 115.546875 C 95.214844 116.109375 95.578125 119.519531 93.488281 120.511719 C 91.921875 121.445312 90.253906 120.289062 89.449219 118.925781 C 84.789062 118.871094 80.128906 118.914062 75.46875 118.898438 C 75.449219 119.925781 75.425781 120.953125 75.394531 121.984375 C 76.65625 122.003906 77.910156 122.023438 79.171875 122.011719 C 79.96875 120.839844 81.296875 119.671875 82.816406 120.261719 C 84.996094 120.871094 85.285156 124.234375 83.226562 125.191406 C 81.660156 126.191406 79.988281 124.925781 79.191406 123.578125 C 77.855469 123.566406 76.523438 123.566406 75.195312 123.558594 C 74.605469 125.804688 73.980469 128.136719 72.441406 129.945312 C 69.960938 125.769531 67.625 121.519531 65.203125 117.308594 C 65.515625 117.085938 66.140625 116.628906 66.449219 116.40625 C 68.480469 119.933594 70.476562 123.488281 72.515625 127.015625 C 73.539062 124.441406 74.015625 121.679688 73.953125 118.910156 C 73.320312 118.90625 72.691406 118.898438 72.054688 118.898438 C 72.054688 118.515625 72.054688 117.753906 72.054688 117.375 C 77.824219 117.289062 83.613281 117.535156 89.371094 117.265625 M 91.613281 117.074219 C 90.339844 117.804688 91.445312 119.921875 92.734375 119.164062 C 94.113281 118.5 93.015625 116.390625 91.613281 117.074219 M 81.703125 121.679688 C 80.113281 121.953125 80.878906 124.511719 82.355469 123.914062 C 83.675781 123.453125 83.058594 121.320312 81.703125 121.679688 Z M 81.703125 121.679688 "/>
<path style=" stroke:none;fill-rule:nonzero;fill:rgb(21.176471%,48.235294%,71.764706%);fill-opacity:1;" d="M 39.363281 117.195312 C 39.785156 116.988281 40.214844 116.804688 40.648438 116.621094 C 40.46875 117.769531 40.363281 118.933594 40.265625 120.09375 C 42.121094 120.101562 43.96875 120.101562 45.824219 120.09375 C 45.339844 119.253906 44.859375 118.414062 44.375 117.574219 C 44.730469 117.15625 45.085938 116.734375 45.441406 116.320312 C 46.589844 118.34375 47.765625 120.355469 48.925781 122.378906 C 48.566406 122.78125 48.210938 123.183594 47.855469 123.589844 C 47.46875 122.945312 47.089844 122.296875 46.714844 121.648438 C 43.484375 121.660156 40.253906 121.605469 37.023438 121.683594 C 36.34375 122.574219 35.648438 123.710938 34.414062 123.820312 C 32.550781 124.148438 30.738281 122.351562 31.074219 120.480469 C 31.238281 118.703125 33.296875 117.425781 34.960938 118.101562 C 35.945312 118.425781 36.449219 119.410156 37.089844 120.15625 C 37.480469 120.121094 38.261719 120.054688 38.648438 120.019531 C 39.03125 119.140625 38.566406 117.761719 39.363281 117.195312 M 33.15625 119.726562 C 31.675781 120.746094 33.46875 123.234375 34.84375 121.96875 C 36.316406 120.925781 34.625 118.699219 33.15625 119.726562 Z M 33.15625 119.726562 "/>
<path style=" stroke:none;fill-rule:nonzero;fill:rgb(47.45098%,15.686275%,51.764706%);fill-opacity:1;" d="M 56.253906 138.578125 C 59.636719 132.730469 63.019531 126.886719 66.433594 121.058594 C 68.125 124.035156 69.941406 126.945312 71.578125 129.953125 C 72.371094 131.210938 70.914062 132.285156 70.191406 133.15625 C 66.660156 137.011719 61.351562 138.539062 56.253906 138.578125 M 59.015625 136.894531 C 63.425781 136.429688 67.59375 134.269531 70.316406 130.738281 C 69.015625 128.519531 67.71875 126.296875 66.429688 124.070312 C 63.960938 128.34375 61.460938 132.605469 59.015625 136.894531 Z M 59.015625 136.894531 "/>
<path style=" stroke:none;fill-rule:nonzero;fill:rgb(20.784314%,39.215686%,64.313725%);fill-opacity:1;" d="M 47.855469 123.589844 C 48.210938 123.183594 48.566406 122.78125 48.925781 122.378906 C 49.84375 123.996094 50.785156 125.59375 51.710938 127.203125 C 44.671875 127.429688 37.621094 127.210938 30.574219 127.324219 C 29.925781 128.074219 29.351562 129.050781 28.308594 129.28125 C 26.566406 129.789062 24.621094 128.316406 24.640625 126.5 C 24.503906 124.566406 26.640625 122.914062 28.464844 123.601562 C 29.546875 123.875 30.054688 124.953125 30.683594 125.769531 C 36.824219 125.769531 42.964844 125.773438 49.105469 125.765625 C 48.691406 125.039062 48.269531 124.316406 47.855469 123.589844 M 27.113281 125.074219 C 25.394531 125.609375 26.304688 128.289062 28.003906 127.808594 C 29.753906 127.246094 28.898438 124.394531 27.113281 125.074219 Z M 27.113281 125.074219 "/>
<path style=" stroke:none;fill-rule:nonzero;fill:rgb(21.176471%,35.686275%,60.392157%);fill-opacity:1;" d="M 40.664062 128.25 C 47.34375 128.226562 54.019531 128.238281 60.699219 128.246094 C 60.101562 129.441406 59.476562 130.625 58.816406 131.789062 C 58.484375 131.59375 57.824219 131.203125 57.496094 131.003906 C 57.664062 130.699219 58.003906 130.078125 58.175781 129.769531 C 53.253906 129.773438 48.328125 129.75 43.410156 129.785156 C 44.011719 130.480469 44.59375 131.179688 45.226562 131.851562 C 44.988281 132.171875 44.523438 132.808594 44.289062 133.128906 C 42.890625 131.65625 41.691406 130.003906 40.664062 128.25 Z M 40.664062 128.25 "/>
<path style=" stroke:none;fill-rule:nonzero;fill:rgb(18.431373%,34.509804%,65.490196%);fill-opacity:1;" d="M 154.289062 128.371094 C 154.714844 128.371094 155.566406 128.363281 155.988281 128.363281 C 156.046875 131.710938 155.988281 135.054688 155.988281 138.394531 C 155.566406 138.398438 154.71875 138.40625 154.296875 138.410156 C 154.28125 135.058594 154.289062 131.714844 154.289062 128.371094 Z M 154.289062 128.371094 "/>
<path style=" stroke:none;fill-rule:nonzero;fill:rgb(19.607843%,34.901961%,61.960784%);fill-opacity:1;" d="M 198.660156 138.40625 C 198.679688 135.011719 198.628906 131.613281 198.695312 128.226562 C 199.085938 128.28125 199.871094 128.394531 200.265625 128.449219 C 200.523438 131.753906 200.289062 135.085938 200.363281 138.398438 C 199.796875 138.398438 199.230469 138.398438 198.660156 138.40625 Z M 198.660156 138.40625 "/>
<path style=" stroke:none;fill-rule:nonzero;fill:rgb(19.607843%,34.509804%,63.137255%);fill-opacity:1;" d="M 110.679688 134.28125 C 108.601562 133.355469 108.800781 129.789062 111.039062 129.214844 C 113.25 128.835938 115.511719 129.105469 117.746094 129.039062 C 117.746094 129.464844 117.746094 130.316406 117.746094 130.738281 C 115.464844 130.730469 113.179688 130.648438 110.910156 130.90625 C 111.148438 131.46875 110.789062 132.699219 111.671875 132.785156 C 113.515625 133.089844 115.503906 132.496094 117.261719 133.265625 C 119.21875 134.273438 118.953125 137.636719 116.800781 138.234375 C 114.328125 138.609375 111.808594 138.308594 109.320312 138.40625 C 109.316406 137.980469 109.300781 137.128906 109.296875 136.703125 C 111.695312 136.644531 114.109375 136.839844 116.503906 136.585938 C 116.988281 136.089844 117.089844 134.960938 116.320312 134.710938 C 114.464844 134.335938 112.496094 134.886719 110.679688 134.28125 Z M 110.679688 134.28125 "/>
<path style=" stroke:none;fill-rule:nonzero;fill:rgb(19.607843%,34.509804%,63.137255%);fill-opacity:1;" d="M 201.050781 131.316406 C 202.769531 131.464844 205.28125 130.75 206.253906 132.636719 C 206.738281 134.515625 206.46875 136.484375 206.515625 138.40625 C 205.933594 138.398438 205.359375 138.398438 204.785156 138.398438 C 204.796875 136.625 204.800781 134.84375 204.699219 133.074219 C 203.480469 133.050781 202.265625 133.039062 201.050781 133.039062 C 201.050781 132.609375 201.050781 131.746094 201.050781 131.316406 Z M 201.050781 131.316406 "/>
<path style=" stroke:none;fill-rule:nonzero;fill:rgb(19.607843%,34.509804%,63.137255%);fill-opacity:1;" d="M 137.113281 134.464844 C 137.203125 133.980469 137.308594 133.496094 137.433594 133.019531 C 139.421875 132.886719 141.414062 132.984375 143.40625 132.976562 C 143.394531 133.351562 143.375 134.101562 143.371094 134.476562 C 141.285156 134.515625 139.199219 134.535156 137.113281 134.464844 Z M 137.113281 134.464844 "/>
<path style=" stroke:none;fill-rule:nonzero;fill:rgb(19.215686%,34.509804%,64.313725%);fill-opacity:1;" d="M 144.011719 129.035156 C 147.074219 129.035156 150.140625 129.035156 153.203125 129.035156 C 153.203125 129.460938 153.203125 130.304688 153.203125 130.730469 C 151.953125 130.730469 150.710938 130.730469 149.460938 130.730469 C 149.453125 133.285156 149.453125 135.84375 149.460938 138.398438 C 149.035156 138.398438 148.191406 138.40625 147.765625 138.40625 C 147.761719 135.851562 147.761719 133.289062 147.761719 130.734375 C 146.511719 130.730469 145.253906 130.730469 144.011719 130.730469 C 144.011719 130.304688 144.011719 129.460938 144.011719 129.035156 Z M 144.011719 129.035156 "/>
<path style=" stroke:none;fill-rule:nonzero;fill:rgb(19.215686%,24.705882%,56.078431%);fill-opacity:1;" d="M 57.496094 131.003906 C 57.824219 131.203125 58.484375 131.59375 58.816406 131.789062 C 57.816406 133.476562 56.925781 135.21875 55.945312 136.914062 C 55.574219 137.394531 55.285156 138.203125 54.539062 138.136719 C 50.683594 137.671875 47.144531 135.703125 44.289062 133.128906 C 44.523438 132.808594 44.988281 132.171875 45.226562 131.851562 C 47.644531 134.394531 50.949219 135.835938 54.316406 136.65625 C 55.386719 134.78125 56.453125 132.898438 57.496094 131.003906 Z M 57.496094 131.003906 "/>
<path style=" stroke:none;fill-rule:nonzero;fill:rgb(19.607843%,34.509804%,62.352941%);fill-opacity:1;" d="M 186.109375 131.320312 C 186.675781 131.320312 187.238281 131.320312 187.804688 131.324219 C 187.714844 133.585938 188.03125 135.878906 187.640625 138.113281 C 185.839844 138.675781 183.691406 138.511719 181.824219 138.136719 C 179.160156 136.988281 180.125 133.59375 179.964844 131.324219 C 180.390625 131.328125 181.246094 131.328125 181.675781 131.328125 C 181.730469 132.910156 181.46875 134.546875 181.898438 136.085938 C 182.984375 137.164062 184.730469 136.523438 186.105469 136.710938 C 186.105469 134.914062 186.105469 133.113281 186.109375 131.320312 Z M 186.109375 131.320312 "/>
<path style=" stroke:none;fill-rule:nonzero;fill:rgb(19.607843%,34.509804%,62.352941%);fill-opacity:1;" d="M 119.964844 132.53125 C 121.105469 130.679688 123.703125 131.410156 125.515625 131.421875 C 127.640625 131.578125 128.058594 134.761719 126.300781 135.71875 C 124.929688 136.253906 123.410156 135.996094 121.96875 136.066406 C 121.976562 135.648438 121.976562 134.824219 121.980469 134.414062 C 123.140625 134.15625 126.308594 135.199219 125.621094 133.085938 C 124.203125 132.886719 122.773438 132.964844 121.359375 133.03125 C 121.304688 134.25 121.285156 135.46875 121.289062 136.695312 C 122.554688 136.769531 123.820312 136.800781 125.089844 136.828125 C 125.085938 137.226562 125.078125 138.019531 125.078125 138.414062 C 123.359375 138.234375 120.851562 139.023438 119.886719 137.101562 C 119.535156 135.625 119.496094 133.984375 119.964844 132.53125 Z M 119.964844 132.53125 "/>
<path style=" stroke:none;fill-rule:nonzero;fill:rgb(19.215686%,34.509804%,63.137255%);fill-opacity:1;" d="M 128.53125 133.03125 C 128.730469 131.894531 129.90625 131.28125 130.984375 131.339844 C 132.699219 131.339844 134.945312 130.921875 136.039062 132.613281 C 136.070312 133.214844 136.089844 133.816406 136.101562 134.421875 C 135.296875 136.648438 132.566406 135.941406 130.75 136.070312 C 130.75 135.65625 130.75 134.824219 130.75 134.410156 C 131.960938 134.394531 133.171875 134.378906 134.378906 134.351562 C 134.40625 134.03125 134.453125 133.386719 134.484375 133.058594 C 133.019531 132.980469 131.554688 132.976562 130.09375 133.054688 C 130.058594 134.265625 130.050781 135.476562 130.066406 136.691406 C 131.308594 136.765625 132.566406 136.796875 133.820312 136.820312 C 133.820312 137.351562 133.820312 137.878906 133.824219 138.410156 C 132.144531 138.238281 129.828125 138.984375 128.730469 137.300781 C 128.195312 135.960938 128.328125 134.429688 128.53125 133.03125 Z M 128.53125 133.03125 "/>
<path style=" stroke:none;fill-rule:nonzero;fill:rgb(19.215686%,34.509804%,63.137255%);fill-opacity:1;" d="M 172.105469 131.59375 C 173.800781 131.171875 175.671875 131.15625 177.363281 131.589844 C 178.984375 132.40625 178.660156 134.535156 178.625 136.039062 C 178.660156 137.210938 177.753906 138.335938 176.546875 138.355469 C 175.019531 138.421875 173.390625 138.625 171.929688 138.085938 C 170.625 137.394531 170.785156 135.738281 170.773438 134.5 C 170.734375 133.40625 170.949219 132.050781 172.105469 131.59375 M 172.574219 133.085938 C 172.535156 134.273438 172.523438 135.464844 172.535156 136.65625 C 173.996094 136.699219 175.453125 136.695312 176.921875 136.644531 C 176.925781 135.460938 176.914062 134.28125 176.886719 133.09375 C 175.445312 133.035156 174.011719 133.035156 172.574219 133.085938 Z M 172.574219 133.085938 "/>
<path style=" stroke:none;fill-rule:nonzero;fill:rgb(19.215686%,34.509804%,63.921569%);fill-opacity:1;" d="M 156.671875 133.015625 C 156.671875 132.445312 156.675781 131.878906 156.683594 131.316406 C 158.390625 131.480469 160.875 130.753906 161.871094 132.621094 C 162.355469 134.5 162.054688 136.480469 162.121094 138.398438 C 161.695312 138.398438 160.84375 138.398438 160.421875 138.398438 C 160.421875 136.636719 160.425781 134.871094 160.351562 133.105469 C 159.125 133.054688 157.894531 133.035156 156.671875 133.015625 Z M 156.671875 133.015625 "/>
<path style=" stroke:none;fill-rule:nonzero;fill:rgb(19.215686%,34.509804%,63.921569%);fill-opacity:1;" d="M 189.371094 133.015625 C 189.800781 131.164062 192 131.273438 193.484375 131.296875 C 194.796875 131.25 196.671875 131.433594 196.960938 133.023438 C 197.183594 135.316406 197.226562 137.664062 196.925781 139.949219 C 196.15625 142.128906 193.386719 141.320312 191.625 141.476562 C 191.625 140.90625 191.625 140.335938 191.628906 139.769531 C 192.808594 139.621094 194.320312 140.128906 195.285156 139.414062 C 195.5 137.316406 195.351562 135.195312 195.335938 133.089844 C 193.878906 133.050781 192.429688 133.054688 190.980469 133.089844 C 190.964844 134.273438 190.964844 135.460938 190.976562 136.648438 C 192.21875 136.679688 193.46875 136.699219 194.71875 136.714844 C 194.710938 137.28125 194.703125 137.851562 194.703125 138.421875 C 193.023438 138.230469 190.734375 138.988281 189.605469 137.335938 C 189.023438 135.996094 189.183594 134.429688 189.371094 133.015625 Z M 189.371094 133.015625 "/>
<path style=" stroke:none;fill-rule:nonzero;fill:rgb(20%,34.509804%,61.960784%);fill-opacity:1;" d="M 163.953125 132.484375 C 165.269531 130.628906 167.925781 131.550781 169.839844 131.324219 C 169.84375 131.890625 169.855469 132.460938 169.863281 133.03125 C 168.375 133.035156 166.890625 133.046875 165.398438 133.085938 C 165.320312 134.859375 165.324219 136.628906 165.328125 138.40625 C 164.765625 138.398438 164.199219 138.398438 163.640625 138.398438 C 163.734375 136.441406 163.324219 134.375 163.953125 132.484375 Z M 163.953125 132.484375 "/>
</g>
</svg>
